<svg xmlns="http://www.w3.org/2000/svg" xmlns:xlink="http://www.w3.org/1999/xlink" version="1.1" class="marks" width="870" height="464" viewBox="0 0 870 464"><g fill="none" stroke-miterlimit="10" transform="translate(58,27)"><g class="mark-group role-frame root" role="graphics-object" aria-roledescription="group mark container"><g transform="translate(0,0)"><path class="background" aria-hidden="true" d="M0.5,0.5h800v400h-800Z" stroke="#ddd"/><g><g class="mark-group role-axis" aria-hidden="true"><g transform="translate(0.5,400.5)"><path class="background" aria-hidden="true" d="M0,0h0v0h0Z" pointer-events="none"/><g><g class="mark-rule role-axis-grid" pointer-events="none"><line transform="translate(31,-400)" x2="0" y2="400" stroke="#ddd" stroke-width="1" opacity="1"/><line transform="translate(66,-400)" x2="0" y2="400" stroke="#ddd" stroke-width="1" opacity="1"/><line transform="translate(101,-400)" x2="0" y2="400" stroke="#ddd" stroke-width="1" opacity="1"/><line transform="translate(135,-400)" x2="0" y2="400" stroke="#ddd" stroke-width="1" opacity="1"/><line transform="translate(170,-400)" x2="0" y2="400" stroke="#ddd" stroke-width="1" opacity="1"/><line transform="translate(205,-400)" x2="0" y2="400" stroke="#ddd" stroke-width="1" opacity="1"/><line transform="translate(240,-400)" x2="0" y2="400" stroke="#ddd" stroke-width="1" opacity="1"/><line transform="translate(274,-400)" x2="0" y2="400" stroke="#ddd" stroke-width="1" opacity="1"/><line transform="translate(309,-400)" x2="0" y2="400" stroke="#ddd" stroke-width="1" opacity="1"/><line transform="translate(344,-400)" x2="0" y2="400" stroke="#ddd" stroke-width="1" opacity="1"/><line transform="translate(378,-400)" x2="0" y2="400" stroke="#ddd" stroke-width="1" opacity="1"/><line transform="translate(413,-400)" x2="0" y2="400" stroke="#ddd" stroke-width="1" opacity="1"/><line transform="translate(448,-400)" x2="0" y2="400" stroke="#ddd" stroke-width="1" opacity="1"/><line transform="translate(483,-400)" x2="0" y2="400" stroke="#ddd" stroke-width="1" opacity="1"/><line transform="translate(517,-400)" x2="0" y2="400" stroke="#ddd" stroke-width="1" opacity="1"/><line transform="translate(552,-400)" x2="0" y2="400" stroke="#ddd" stroke-width="1" opacity="1"/><line transform="translate(587,-400)" x2="0" y2="400" stroke="#ddd" stroke-width="1" opacity="1"/><line transform="translate(621,-400)" x2="0" y2="400" stroke="#ddd" stroke-width="1" opacity="1"/><line transform="translate(656,-400)" x2="0" y2="400" stroke="#ddd" stroke-width="1" opacity="1"/><line transform="translate(691,-400)" x2="0" y2="400" stroke="#ddd" stroke-width="1" opacity="1"/><line transform="translate(726,-400)" x2="0" y2="400" stroke="#ddd" stroke-width="1" opacity="1"/><line transform="translate(760,-400)" x2="0" y2="400" stroke="#ddd" stroke-width="1" opacity="1"/><line transform="translate(795,-400)" x2="0" y2="400" stroke="#ddd" stroke-width="1" opacity="1"/></g></g><path class="foreground" aria-hidden="true" d="" pointer-events="none" display="none"/></g></g><g class="mark-group role-axis" aria-hidden="true"><g transform="translate(0.5,0.5)"><path class="background" aria-hidden="true" d="M0,0h0v0h0Z" pointer-events="none"/><g><g class="mark-rule role-axis-grid" pointer-events="none"><line transform="translate(0,400)" x2="800" y2="0" stroke="#ddd" stroke-width="1" opacity="1"/><line transform="translate(0,350)" x2="800" y2="0" stroke="#ddd" stroke-width="1" opacity="1"/><line transform="translate(0,300)" x2="800" y2="0" stroke="#ddd" stroke-width="1" opacity="1"/><line transform="translate(0,250)" x2="800" y2="0" stroke="#ddd" stroke-width="1" opacity="1"/><line transform="translate(0,200)" x2="800" y2="0" stroke="#ddd" stroke-width="1" opacity="1"/><line transform="translate(0,150)" x2="800" y2="0" stroke="#ddd" stroke-width="1" opacity="1"/><line transform="translate(0,100)" x2="800" y2="0" stroke="#ddd" stroke-width="1" opacity="1"/><line transform="translate(0,50)" x2="800" y2="0" stroke="#ddd" stroke-width="1" opacity="1"/><line transform="translate(0,0)" x2="800" y2="0" stroke="#ddd" stroke-width="1" opacity="1"/></g></g><path class="foreground" aria-hidden="true" d="" pointer-events="none" display="none"/></g></g><g class="mark-group role-axis" role="graphics-symbol" aria-roledescription="axis" aria-label="X-axis titled 'Snapshot Month' for a time scale with values from Friday, 07 February 2003, 9:34:10 AM to Sunday, 22 February 2026, 2:25:49 PM"><g transform="translate(0.5,400.5)"><path class="background" aria-hidden="true" d="M0,0h0v0h0Z" pointer-events="none"/><g><g class="mark-rule role-axis-tick" pointer-events="none"><line transform="translate(31,0)" x2="0" y2="5" stroke="#888" stroke-width="1" opacity="1"/><line transform="translate(66,0)" x2="0" y2="5" stroke="#888" stroke-width="1" opacity="1"/><line transform="translate(101,0)" x2="0" y2="5" stroke="#888" stroke-width="1" opacity="1"/><line transform="translate(135,0)" x2="0" y2="5" stroke="#888" stroke-width="1" opacity="1"/><line transform="translate(170,0)" x2="0" y2="5" stroke="#888" stroke-width="1" opacity="1"/><line transform="translate(205,0)" x2="0" y2="5" stroke="#888" stroke-width="1" opacity="1"/><line transform="translate(240,0)" x2="0" y2="5" stroke="#888" stroke-width="1" opacity="1"/><line transform="translate(274,0)" x2="0" y2="5" stroke="#888" stroke-width="1" opacity="1"/><line transform="translate(309,0)" x2="0" y2="5" stroke="#888" stroke-width="1" opacity="1"/><line transform="translate(344,0)" x2="0" y2="5" stroke="#888" stroke-width="1" opacity="1"/><line transform="translate(378,0)" x2="0" y2="5" stroke="#888" stroke-width="1" opacity="1"/><line transform="translate(413,0)" x2="0" y2="5" stroke="#888" stroke-width="1" opacity="1"/><line transform="translate(448,0)" x2="0" y2="5" stroke="#888" stroke-width="1" opacity="1"/><line transform="translate(483,0)" x2="0" y2="5" stroke="#888" stroke-width="1" opacity="1"/><line transform="translate(517,0)" x2="0" y2="5" stroke="#888" stroke-width="1" opacity="1"/><line transform="translate(552,0)" x2="0" y2="5" stroke="#888" stroke-width="1" opacity="1"/><line transform="translate(587,0)" x2="0" y2="5" stroke="#888" stroke-width="1" opacity="1"/><line transform="translate(621,0)" x2="0" y2="5" stroke="#888" stroke-width="1" opacity="1"/><line transform="translate(656,0)" x2="0" y2="5" stroke="#888" stroke-width="1" opacity="1"/><line transform="translate(691,0)" x2="0" y2="5" stroke="#888" stroke-width="1" opacity="1"/><line transform="translate(726,0)" x2="0" y2="5" stroke="#888" stroke-width="1" opacity="1"/><line transform="translate(760,0)" x2="0" y2="5" stroke="#888" stroke-width="1" opacity="1"/><line transform="translate(795,0)" x2="0" y2="5" stroke="#888" stroke-width="1" opacity="1"/></g><g class="mark-text role-axis-label" pointer-events="none"><text text-anchor="middle" transform="translate(31.140055349300987,15)" font-family="sans-serif" font-size="10px" fill="#000" opacity="1">2004</text><text text-anchor="middle" transform="translate(65.93009264922553,15)" font-family="sans-serif" font-size="10px" fill="#000" opacity="1">2005</text><text text-anchor="middle" transform="translate(100.62507520242896,15)" font-family="sans-serif" font-size="10px" fill="#000" opacity="1">2006</text><text text-anchor="middle" transform="translate(135.32005775563238,15)" font-family="sans-serif" font-size="10px" fill="#000" opacity="1">2007</text><text text-anchor="middle" transform="translate(170.01504030883584,15)" font-family="sans-serif" font-size="10px" fill="#000" opacity="1">2008</text><text text-anchor="middle" transform="translate(204.80507760876034,15)" font-family="sans-serif" font-size="10px" fill="#000" opacity="1">2009</text><text text-anchor="middle" transform="translate(239.5000601619638,15)" font-family="sans-serif" font-size="10px" fill="#000" opacity="1">2010</text><text text-anchor="middle" transform="translate(274.19504271516723,15)" font-family="sans-serif" font-size="10px" fill="#000" opacity="1">2011</text><text text-anchor="middle" transform="translate(308.89002526837066,15)" font-family="sans-serif" font-size="10px" fill="#000" opacity="1">2012</text><text text-anchor="middle" transform="translate(343.68006256829517,15)" font-family="sans-serif" font-size="10px" fill="#000" opacity="1">2013</text><text text-anchor="middle" transform="translate(378.3750451214986,15)" font-family="sans-serif" font-size="10px" fill="#000" opacity="1">2014</text><text text-anchor="middle" transform="translate(413.0700276747021,15)" font-family="sans-serif" font-size="10px" fill="#000" opacity="1">2015</text><text text-anchor="middle" transform="translate(447.7650102279055,15)" font-family="sans-serif" font-size="10px" fill="#000" opacity="1">2016</text><text text-anchor="middle" transform="translate(482.55504752783,15)" font-family="sans-serif" font-size="10px" fill="#000" opacity="1">2017</text><text text-anchor="middle" transform="translate(517.2500300810334,15)" font-family="sans-serif" font-size="10px" fill="#000" opacity="1">2018</text><text text-anchor="middle" transform="translate(551.945012634237,15)" font-family="sans-serif" font-size="10px" fill="#000" opacity="1">2019</text><text text-anchor="middle" transform="translate(586.6399951874404,15)" font-family="sans-serif" font-size="10px" fill="#000" opacity="1">2020</text><text text-anchor="middle" transform="translate(621.4300324873649,15)" font-family="sans-serif" font-size="10px" fill="#000" opacity="1">2021</text><text text-anchor="middle" transform="translate(656.1250150405683,15)" font-family="sans-serif" font-size="10px" fill="#000" opacity="1">2022</text><text text-anchor="middle" transform="translate(690.8199975937717,15)" font-family="sans-serif" font-size="10px" fill="#000" opacity="1">2023</text><text text-anchor="middle" transform="translate(725.5149801469752,15)" font-family="sans-serif" font-size="10px" fill="#000" opacity="1">2024</text><text text-anchor="middle" transform="translate(760.3050174468997,15)" font-family="sans-serif" font-size="10px" fill="#000" opacity="1">2025</text><text text-anchor="middle" transform="translate(795.0000000001031,15)" font-family="sans-serif" font-size="10px" fill="#000" opacity="1">2026</text></g><g class="mark-rule role-axis-domain" pointer-events="none"><line transform="translate(0,0)" x2="800" y2="0" stroke="#888" stroke-width="1" opacity="1"/></g><g class="mark-text role-axis-title" pointer-events="none"><text text-anchor="middle" transform="translate(400,30)" font-family="sans-serif" font-size="11px" font-weight="bold" fill="#000" opacity="1">Snapshot Month</text></g></g><path class="foreground" aria-hidden="true" d="" pointer-events="none" display="none"/></g></g><g class="mark-group role-axis" role="graphics-symbol" aria-roledescription="axis" aria-label="Y-axis titled 'Active SFC Professionals' for a linear scale with values from 0 to 40,000"><g transform="translate(0.5,0.5)"><path class="background" aria-hidden="true" d="M0,0h0v0h0Z" pointer-events="none"/><g><g class="mark-rule role-axis-tick" pointer-events="none"><line transform="translate(0,400)" x2="-5" y2="0" stroke="#888" stroke-width="1" opacity="1"/><line transform="translate(0,350)" x2="-5" y2="0" stroke="#888" stroke-width="1" opacity="1"/><line transform="translate(0,300)" x2="-5" y2="0" stroke="#888" stroke-width="1" opacity="1"/><line transform="translate(0,250)" x2="-5" y2="0" stroke="#888" stroke-width="1" opacity="1"/><line transform="translate(0,200)" x2="-5" y2="0" stroke="#888" stroke-width="1" opacity="1"/><line transform="translate(0,150)" x2="-5" y2="0" stroke="#888" stroke-width="1" opacity="1"/><line transform="translate(0,100)" x2="-5" y2="0" stroke="#888" stroke-width="1" opacity="1"/><line transform="translate(0,50)" x2="-5" y2="0" stroke="#888" stroke-width="1" opacity="1"/><line transform="translate(0,0)" x2="-5" y2="0" stroke="#888" stroke-width="1" opacity="1"/></g><g class="mark-text role-axis-label" pointer-events="none"><text text-anchor="end" transform="translate(-7,403)" font-family="sans-serif" font-size="10px" fill="#000" opacity="1">0</text><text text-anchor="end" transform="translate(-7,353)" font-family="sans-serif" font-size="10px" fill="#000" opacity="1">5,000</text><text text-anchor="end" transform="translate(-7,303)" font-family="sans-serif" font-size="10px" fill="#000" opacity="1">10,000</text><text text-anchor="end" transform="translate(-7,253)" font-family="sans-serif" font-size="10px" fill="#000" opacity="1">15,000</text><text text-anchor="end" transform="translate(-7,203)" font-family="sans-serif" font-size="10px" fill="#000" opacity="1">20,000</text><text text-anchor="end" transform="translate(-7,153)" font-family="sans-serif" font-size="10px" fill="#000" opacity="1">25,000</text><text text-anchor="end" transform="translate(-7,103)" font-family="sans-serif" font-size="10px" fill="#000" opacity="1">30,000</text><text text-anchor="end" transform="translate(-7,53)" font-family="sans-serif" font-size="10px" fill="#000" opacity="1">35,000</text><text text-anchor="end" transform="translate(-7,3)" font-family="sans-serif" font-size="10px" fill="#000" opacity="1">40,000</text></g><g class="mark-rule role-axis-domain" pointer-events="none"><line transform="translate(0,400)" x2="0" y2="-400" stroke="#888" stroke-width="1" opacity="1"/></g><g class="mark-text role-axis-title" pointer-events="none"><text text-anchor="middle" transform="translate(-41.5859375,200) rotate(-90) translate(0,-2)" font-family="sans-serif" font-size="11px" font-weight="bold" fill="#000" opacity="1">Active SFC Professionals</text></g></g><path class="foreground" aria-hidden="true" d="" pointer-events="none" display="none"/></g></g><g class="mark-rect role-mark marks" clip-path="url(#clip1)" role="graphics-symbol" aria-roledescription="rect mark container"><path d="M514.7500300810334,19.560000000000024h5v380.44h-5Z" fill="#4c78a8"/><path d="M74.83666225575816,189.1h5v210.9h-5Z" fill="#4c78a8"/><path d="M711.4183010470003,25.199999999999978h5v374.8h-5Z" fill="#4c78a8"/><path d="M749.059980748558,39.040000000000006h5v360.96h-5Z" fill="#4c78a8"/><path d="M752.0066778969124,35.55999999999999h5v364.44h-5Z" fill="#4c78a8"/><path d="M483.0017446761843,25.039999999999996h5v374.96h-5Z" fill="#4c78a8"/><path d="M627.4849596922644,13.019999999999987h5v386.98h-5Z" fill="#4c78a8"/><path d="M491.46161713436265,26.65000000000002h5v373.34999999999997h-5Z" fill="#4c78a8"/><path d="M306.39002526837066,50h5v350h-5Z" fill="#4c78a8"/><path d="M274.6417398635215,55.16999999999999h5v344.83000000000004h-5Z" fill="#4c78a8"/><path d="M780.9033209001283,41.259999999999984h5v358.74h-5Z" fill="#4c78a8"/><path d="M181.9633618104438,77.59999999999998h5v322.40000000000003h-5Z" fill="#4c78a8"/><path d="M207.91330766530558,67.97h5v332.03h-5Z" fill="#4c78a8"/><path d="M346.7882926248404,54.85000000000002h5v345.15h-5Z" fill="#4c78a8"/><path d="M155.91836120886097,113.41999999999999h5v286.58000000000004h-5Z" fill="#4c78a8"/><path d="M283.10161232169986,53.580000000000005h5v346.42h-5Z" fill="#4c78a8"/><path d="M71.985019854125,193.71h5v206.29h-5Z" fill="#4c78a8"/><path d="M644.8799783422267,13.269999999999982h5v386.73h-5Z" fill="#4c78a8"/><path d="M381.4832751780438,51.41h5v348.59000000000003h-5Z" fill="#4c78a8"/><path d="M555.0532426907821,1.770000000000005h5v398.23h-5Z" fill="#4c78a8"/><path d="M196.50673805877292,62.27h5v337.73h-5Z" fill="#4c78a8"/><path d="M320.83834676997867,52.44h5v347.56h-5Z" fill="#4c78a8"/><path d="M754.8583202985454,35.76000000000001h5v364.24h-5Z" fill="#4c78a8"/><path d="M170.46173745719008,89.25h5v310.75h-5Z" fill="#4c78a8"/><path d="M22.84171579931356,208.57999999999998h5v191.42000000000002h-5Z" fill="#4c78a8"/><path d="M219.50998676528042,75.76999999999998h5v324.23h-5Z" fill="#4c78a8"/><path d="M740.3149440502164,40.16000000000002h5v359.84h-5Z" fill="#4c78a8"/><path d="M231.20172061197638,74.18h5v325.82h-5Z" fill="#4c78a8"/><path d="M488.60997473272954,25.749999999999986h5v374.25h-5Z" fill="#4c78a8"/><path d="M723.0149801469752,29.74000000000001h5v370.26h-5Z" fill="#4c78a8"/><path d="M11.149981952617612,207.20000000000002h5v192.79999999999998h-5Z" fill="#4c78a8"/><path d="M335.38172301830775,52.05000000000002h5v347.95h-5Z" fill="#4c78a8"/><path d="M453.9149921795261,31.289999999999996h5v368.71h-5Z" fill="#4c78a8"/><path d="M456.7666345811592,32.10999999999999h5v367.89h-5Z" fill="#4c78a8"/><path d="M786.7016604501157,38.79000000000001h5v361.21h-5Z" fill="#4c78a8"/><path d="M210.86000481365983,69.62000000000002h5v330.38h-5Z" fill="#4c78a8"/><path d="M578.3416556374528,1.7300000000000093h5v398.27h-5Z" fill="#4c78a8"/><path d="M277.30327277171244,55.35000000000001h5v344.65h-5Z" fill="#4c78a8"/><path d="M63.43009264922553,193.52h5v206.48h-5Z" fill="#4c78a8"/><path d="M647.8266754905809,9.770000000000012h5v390.22999999999996h-5Z" fill="#4c78a8"/><path d="M670.8299241970884,13.180000000000014h5v386.82h-5Z" fill="#4c78a8"/><path d="M465.51167127950094,32.3h5v367.7h-5Z" fill="#4c78a8"/><path d="M355.5333293231821,57.399999999999984h5v342.6h-5Z" fill="#4c78a8"/><path d="M705.5249067502918,23.970000000000002h5v376.03h-5Z" fill="#4c78a8"/><path d="M508.95169053104604,22.88000000000001h5v377.12h-5Z" fill="#4c78a8"/><path d="M737.4633016485832,37.88h5v362.12h-5Z" fill="#4c78a8"/><path d="M45.94001925254215,203.92999999999998h5v196.07000000000002h-5Z" fill="#4c78a8"/><path d="M48.88671640089642,202.85000000000002h5v197.14999999999998h-5Z" fill="#4c78a8"/><path d="M288.8999518716873,57.07h5v342.93h-5Z" fill="#4c78a8"/><path d="M656.5717121889226,6.950000000000012h5v393.05h-5Z" fill="#4c78a8"/><path d="M772.1582842017866,39.599999999999994h5v360.4h-5Z" fill="#4c78a8"/><path d="M584.1399951874404,3.169999999999984h5v396.83000000000004h-5Z" fill="#4c78a8"/><path d="M691.266694742126,18.52999999999998h5v381.47h-5Z" fill="#4c78a8"/><path d="M699.7265672003043,21.899999999999984h5v378.1h-5Z" fill="#4c78a8"/><path d="M673.7766213454427,14.250000000000007h5v385.75h-5Z" fill="#4c78a8"/><path d="M676.7233184937969,14.23000000000001h5v385.77h-5Z" fill="#4c78a8"/><path d="M323.68998917161184,53.71999999999999h5v346.28000000000003h-5Z" fill="#4c78a8"/><path d="M118.27668150730328,157.20999999999998h5v242.79000000000002h-5Z" fill="#4c78a8"/><path d="M124.0750210572907,149.77999999999997h5v250.22000000000003h-5Z" fill="#4c78a8"/><path d="M375.8750451214986,52.53000000000001h5v347.46999999999997h-5Z" fill="#4c78a8"/><path d="M485.66327758437524,24.96999999999998h5v375.03000000000003h-5Z" fill="#4c78a8"/><path d="M439.46667067791805,34.45999999999998h5v365.54h-5Z" fill="#4c78a8"/><path d="M763.413247503445,37.230000000000004h5v362.77h-5Z" fill="#4c78a8"/><path d="M592.789977139061,6.7299999999999915h5v393.27h-5Z" fill="#4c78a8"/><path d="M404.7716881247146,47.46999999999999h5v352.53000000000003h-5Z" fill="#4c78a8"/><path d="M572.5433160874655,2.950000000000008h5v397.05h-5Z" fill="#4c78a8"/><path d="M642.0283359405935,14.800000000000013h5v385.2h-5Z" fill="#4c78a8"/><path d="M792.5000000001031,40.180000000000014h5v359.82h-5Z" fill="#4c78a8"/><path d="M714.2699434486335,25.760000000000005h5v374.24h-5Z" fill="#4c78a8"/><path d="M601.4399590906814,10.049999999999981h5v389.95000000000005h-5Z" fill="#4c78a8"/><path d="M615.9833353390106,9.310000000000018h5v390.69h-5Z" fill="#4c78a8"/><path d="M407.62333052634784,46.43999999999999h5v353.56h-5Z" fill="#4c78a8"/><path d="M503.1533509810587,26.10999999999999h5v373.89h-5Z" fill="#4c78a8"/><path d="M720.0682829986209,26.739999999999988h5v373.26h-5Z" fill="#4c78a8"/><path d="M506.0049933826918,23.819999999999997h5v376.18h-5Z" fill="#4c78a8"/><path d="M604.3866562390357,9.509999999999996h5v390.49h-5Z" fill="#4c78a8"/><path d="M445.2650102279055,32.64999999999998h5v367.35h-5Z" fill="#4c78a8"/><path d="M540.6999759358952,7.790000000000008h5v392.21h-5Z" fill="#4c78a8"/><path d="M390.22831187638553,53.23000000000002h5v346.77h-5Z" fill="#4c78a8"/><path d="M529.1032968359203,14.179999999999993h5v385.82h-5Z" fill="#4c78a8"/><path d="M344.1267597166495,54.86h5v345.14h-5Z" fill="#4c78a8"/><path d="M150.02496691215245,124.54999999999998h5v275.45000000000005h-5Z" fill="#4c78a8"/><path d="M639.0816387922391,17.45000000000001h5v382.55h-5Z" fill="#4c78a8"/><path d="M242.608290218509,68.35h5v331.65h-5Z" fill="#4c78a8"/><path d="M557.9999398391363,2.220000000000022h5v397.78h-5Z" fill="#4c78a8"/><path d="M462.5649741311467,33.230000000000004h5v366.77h-5Z" fill="#4c78a8"/><path d="M234.05336301360956,72.54h5v327.46h-5Z" fill="#4c78a8"/><path d="M237.0000601619638,71.81000000000002h5v328.19h-5Z" fill="#4c78a8"/><path d="M364.2783660215238,55.20999999999998h5v344.79h-5Z" fill="#4c78a8"/><path d="M225.40338106198897,77.63h5v322.37h-5Z" fill="#4c78a8"/><path d="M520.3582601375787,16.42999999999999h5v383.57h-5Z" fill="#4c78a8"/><path d="M746.2083383469248,39.610000000000014h5v360.39h-5Z" fill="#4c78a8"/><path d="M176.1650222604564,83.27h5v316.73h-5Z" fill="#4c78a8"/><path d="M370.0767055715112,52.36000000000001h5v347.64h-5Z" fill="#4c78a8"/><path d="M731.6649620985958,34.529999999999994h5v365.47h-5Z" fill="#4c78a8"/><path d="M436.51997352956374,37.74999999999999h5v362.25h-5Z" fill="#4c78a8"/><path d="M51.83341354925068,200.23999999999998h5v199.76000000000002h-5Z" fill="#4c78a8"/><path d="M537.8483335342621,9.58000000000001h5v390.42h-5Z" fill="#4c78a8"/><path d="M199.35838046040612,64.04h5v335.96h-5Z" fill="#4c78a8"/><path d="M549.445012634237,3.180000000000005h5v396.82h-5Z" fill="#4c78a8"/><path d="M682.5216580437843,14.279999999999982h5v385.72h-5Z" fill="#4c78a8"/><path d="M783.7549633017614,40.62000000000001h5v359.38h-5Z" fill="#4c78a8"/><path d="M450.9682950311718,32.140000000000015h5v367.86h-5Z" fill="#4c78a8"/><path d="M777.956623751774,42.01999999999999h5v357.98h-5Z" fill="#4c78a8"/><path d="M135.76675490398665,139.74h5v260.26h-5Z" fill="#4c78a8"/><path d="M424.923294429589,43.86999999999999h5v356.13h-5Z" fill="#4c78a8"/><path d="M693.928227650317,18.900000000000006h5v381.1h-5Z" fill="#4c78a8"/><path d="M158.77000361049411,107.26h5v292.74h-5Z" fill="#4c78a8"/><path d="M245.5549873668633,66.71999999999998h5v333.28000000000003h-5Z" fill="#4c78a8"/><path d="M378.8217422698529,51.33000000000001h5v348.66999999999996h-5Z" fill="#4c78a8"/><path d="M384.4299723263981,51.489999999999995h5v348.51h-5Z" fill="#4c78a8"/><path d="M789.5533028517489,38.01999999999999h5v361.98h-5Z" fill="#4c78a8"/><path d="M190.7083985087855,66.12h5v333.88h-5Z" fill="#4c78a8"/><path d="M468.45836842785513,29.610000000000003h5v370.39h-5Z" fill="#4c78a8"/><path d="M121.22337865565754,152.44h5v247.56h-5Z" fill="#4c78a8"/><path d="M303.4433281200164,44.68000000000001h5v355.32h-5Z" fill="#4c78a8"/><path d="M757.8050174468997,37.59999999999999h5v362.40000000000003h-5Z" fill="#4c78a8"/><path d="M352.58663217482786,57.08000000000002h5v342.91999999999996h-5Z" fill="#4c78a8"/><path d="M624.5382625439102,13.22000000000001h5v386.78h-5Z" fill="#4c78a8"/><path d="M725.9616772953294,30.200000000000003h5v369.8h-5Z" fill="#4c78a8"/><path d="M89.38003850408727,176.82000000000002h5v223.17999999999998h-5Z" fill="#4c78a8"/><path d="M14.096679100971876,208.27h5v191.73h-5Z" fill="#4c78a8"/><path d="M607.33335338739,11.220000000000008h5v388.78h-5Z" fill="#4c78a8"/><path d="M760.7517145952539,37.740000000000016h5v362.26h-5Z" fill="#4c78a8"/><path d="M291.8466490200415,53.94999999999999h5v346.05h-5Z" fill="#4c78a8"/><path d="M531.9549392375535,14.19999999999999h5v385.8h-5Z" fill="#4c78a8"/><path d="M43.08837685090899,204.31h5v195.69h-5Z" fill="#4c78a8"/><path d="M202.30507760876034,66.85h5v333.15h-5Z" fill="#4c78a8"/><path d="M332.4350258699535,52.669999999999995h5v347.33h-5Z" fill="#4c78a8"/><path d="M587.0866923357946,4.070000000000018h5v395.93h-5Z" fill="#4c78a8"/><path d="M129.87336060727813,144.11999999999998h5v255.88000000000002h-5Z" fill="#4c78a8"/><path d="M260.0983636151924,63.60000000000001h5v336.4h-5Z" fill="#4c78a8"/><path d="M511.80333293267927,20.18h5v379.82h-5Z" fill="#4c78a8"/><path d="M161.7167007588484,101.29000000000002h5v298.71h-5Z" fill="#4c78a8"/><path d="M326.6366863199661,53.37999999999998h5v346.62h-5Z" fill="#4c78a8"/><path d="M717.2166405969878,26.35000000000001h5v373.65h-5Z" fill="#4c78a8"/><path d="M300.59168571838325,45.69999999999999h5v354.3h-5Z" fill="#4c78a8"/><path d="M702.6732643486586,22.160000000000004h5v377.84h-5Z" fill="#4c78a8"/><path d="M349.7349897731947,55.81h5v344.19h-5Z" fill="#4c78a8"/><path d="M500.2066538327044,27.839999999999996h5v372.16h-5Z" fill="#4c78a8"/><path d="M5.351642402630188,204.64000000000001h5v195.35999999999999h-5Z" fill="#4c78a8"/><path d="M265.8967031651798,59.68h5v340.32h-5Z" fill="#4c78a8"/><path d="M433.6683311279306,40.30999999999998h5v359.69h-5Z" fill="#4c78a8"/><path d="M54.685055950883836,198.73h5v201.27h-5Z" fill="#4c78a8"/><path d="M57.631753099238104,196.99h5v203.01h-5Z" fill="#4c78a8"/><path d="M106.68000240732843,167.13h5v232.87h-5Z" fill="#4c78a8"/><path d="M659.2332450971136,7.940000000000014h5v392.06h-5Z" fill="#4c78a8"/><path d="M341.18006256829517,54.30999999999999h5v345.69h-5Z" fill="#4c78a8"/><path d="M286.04830947005416,50.38999999999998h5v349.61h-5Z" fill="#4c78a8"/><path d="M401.82499097636037,49.42999999999999h5v350.57h-5Z" fill="#4c78a8"/><path d="M480.05504752783,27.110000000000014h5v372.89h-5Z" fill="#4c78a8"/><path d="M416.17825773124724,44.64999999999999h5v355.35h-5Z" fill="#4c78a8"/><path d="M419.12495487960155,43.769999999999996h5v356.23h-5Z" fill="#4c78a8"/><path d="M329.58338346832033,52.38h5v347.62h-5Z" fill="#4c78a8"/><path d="M115.32998435894902,160.51999999999998h5v239.48000000000002h-5Z" fill="#4c78a8"/><path d="M566.6499217907569,4.599999999999982h5v395.40000000000003h-5Z" fill="#4c78a8"/><path d="M164.56834316048156,96.85000000000001h5v303.15h-5Z" fill="#4c78a8"/><path d="M526.1565996875661,16.00999999999999h5v383.99h-5Z" fill="#4c78a8"/><path d="M728.7182649502414,32.569999999999986h5v367.43h-5Z" fill="#4c78a8"/><path d="M98.12507520242896,172.29000000000002h5v227.70999999999998h-5Z" fill="#4c78a8"/><path d="M309.3367224167249,48.55999999999998h5v351.44h-5Z" fill="#4c78a8"/><path d="M610.1849957890232,10.950000000000015h5v389.05h-5Z" fill="#4c78a8"/><path d="M2.50000000099703,202.34h5v197.66h-5Z" fill="#4c78a8"/><path d="M268.748345566813,58.69h5v341.31h-5Z" fill="#4c78a8"/><path d="M112.47834195731586,162.95000000000002h5v237.04999999999998h-5Z" fill="#4c78a8"/><path d="M83.58169895409985,182.19h5v217.81h-5Z" fill="#4c78a8"/><path d="M315.04000721999125,51.05h5v348.95h-5Z" fill="#4c78a8"/><path d="M665.0315846471009,9.269999999999978h5v390.73h-5Z" fill="#4c78a8"/><path d="M132.82005775563238,142.91h5v257.09000000000003h-5Z" fill="#4c78a8"/><path d="M430.7216339795764,43.31999999999998h5v356.68h-5Z" fill="#4c78a8"/><path d="M297.64498857002894,47.83h5v352.17h-5Z" fill="#4c78a8"/><path d="M372.92834797314435,52.150000000000006h5v347.85h-5Z" fill="#4c78a8"/><path d="M31.586752497655247,207.93999999999997h5v192.06000000000003h-5Z" fill="#4c78a8"/><path d="M743.2616411985706,40.09999999999998h5v359.90000000000003h-5Z" fill="#4c78a8"/><path d="M173.21832511210215,87.12h5v312.88h-5Z" fill="#4c78a8"/><path d="M228.2550234636221,75.70000000000002h5v324.29999999999995h-5Z" fill="#4c78a8"/><path d="M92.32673565244153,175.31h5v224.69h-5Z" fill="#4c78a8"/><path d="M410.5700276747021,46.589999999999996h5v353.41h-5Z" fill="#4c78a8"/><path d="M497.25995668435013,27.800000000000004h5v372.2h-5Z" fill="#4c78a8"/><path d="M662.1799422454678,8.999999999999986h5v391h-5Z" fill="#4c78a8"/><path d="M34.34334015256731,208.46h5v191.54h-5Z" fill="#4c78a8"/><path d="M552.3917097825911,1.7799999999999816h5v398.22h-5Z" fill="#4c78a8"/><path d="M543.6466730842494,4.95000000000001h5v395.05h-5Z" fill="#4c78a8"/><path d="M581.1932980390861,2.5900000000000034h5v397.40999999999997h-5Z" fill="#4c78a8"/><path d="M138.42828781217762,137.84h5v262.15999999999997h-5Z" fill="#4c78a8"/><path d="M257.1516664668381,66.76000000000002h5v333.24h-5Z" fill="#4c78a8"/><path d="M69.03832270577074,192.03h5v207.97h-5Z" fill="#4c78a8"/><path d="M248.40662976849646,67.39000000000001h5v332.61h-5Z" fill="#4c78a8"/><path d="M239.94675731031805,68.86999999999999h5v331.13h-5Z" fill="#4c78a8"/><path d="M17.043376249326137,208.65999999999997h5v191.34000000000003h-5Z" fill="#4c78a8"/><path d="M25.693358200946722,207.83h5v192.17h-5Z" fill="#4c78a8"/><path d="M523.3049572859329,16.52999999999998h5v383.47h-5Z" fill="#4c78a8"/><path d="M494.4083142827169,26.639999999999997h5v373.36h-5Z" fill="#4c78a8"/><path d="M312.093310071637,50.91999999999999h5v349.08000000000004h-5Z" fill="#4c78a8"/><path d="M734.5166045002289,36.039999999999985h5v363.96000000000004h-5Z" fill="#4c78a8"/><path d="M442.3183130795512,32.24999999999998h5v367.75h-5Z" fill="#4c78a8"/><path d="M109.5316448089616,165.60000000000002h5v234.39999999999998h-5Z" fill="#4c78a8"/><path d="M40.141679702554725,205.10999999999999h5v194.89000000000001h-5Z" fill="#4c78a8"/><path d="M80.63500180574557,184.54999999999998h5v215.45000000000002h-5Z" fill="#4c78a8"/><path d="M213.71164721529297,70.54h5v329.46h-5Z" fill="#4c78a8"/><path d="M421.9765972812347,44.57h5v355.43h-5Z" fill="#4c78a8"/><path d="M396.02665142637295,53.47h5v346.53h-5Z" fill="#4c78a8"/><path d="M696.8749247986713,20.509999999999984h5v379.49h-5Z" fill="#4c78a8"/><path d="M413.51672482305634,45.44999999999999h5v354.55h-5Z" fill="#4c78a8"/><path d="M560.8515822407696,3.100000000000014h5v396.9h-5Z" fill="#4c78a8"/><path d="M28.640055349300987,207.62h5v192.38h-5Z" fill="#4c78a8"/><path d="M179.01666466208957,80.03999999999998h5v319.96000000000004h-5Z" fill="#4c78a8"/><path d="M618.9300324873649,11.26999999999998h5v388.73h-5Z" fill="#4c78a8"/><path d="M613.1316929373775,9.85999999999998h5v390.14000000000004h-5Z" fill="#4c78a8"/><path d="M769.2115870534324,39.00999999999999h5v360.99h-5Z" fill="#4c78a8"/><path d="M37.29003730092157,206.75h5v193.25h-5Z" fill="#4c78a8"/><path d="M184.81500421207699,74.44999999999999h5v325.55h-5Z" fill="#4c78a8"/><path d="M517.6967272293876,16.860000000000007h5v383.14h-5Z" fill="#4c78a8"/><path d="M152.97166406050673,118.67999999999998h5v281.32000000000005h-5Z" fill="#4c78a8"/><path d="M141.37498496053186,135.29h5v264.71000000000004h-5Z" fill="#4c78a8"/><path d="M708.4716038986461,25.070000000000014h5v374.93h-5Z" fill="#4c78a8"/><path d="M294.79334616839583,49.48000000000001h5v350.52h-5Z" fill="#4c78a8"/><path d="M598.5883166890484,8.28000000000002h5v391.71999999999997h-5Z" fill="#4c78a8"/><path d="M621.8767296357191,11.299999999999999h5v388.7h-5Z" fill="#4c78a8"/><path d="M271.69504271516723,58.230000000000004h5v341.77h-5Z" fill="#4c78a8"/><path d="M448.21170737625977,32.16999999999999h5v367.83000000000004h-5Z" fill="#4c78a8"/><path d="M534.9016363859079,11.60000000000001h5v388.4h-5Z" fill="#4c78a8"/><path d="M766.3599446517992,38.43000000000001h5v361.57h-5Z" fill="#4c78a8"/><path d="M459.71333172951347,33.009999999999984h5v366.99h-5Z" fill="#4c78a8"/><path d="M546.4983154858827,2.4399999999999977h5v397.56h-5Z" fill="#4c78a8"/><path d="M667.9782817954551,9.68h5v390.32h-5Z" fill="#4c78a8"/><path d="M589.8432799907067,5.039999999999978h5v394.96000000000004h-5Z" fill="#4c78a8"/><path d="M398.97334857472725,50.95h5v349.05h-5Z" fill="#4c78a8"/><path d="M477.1083503794757,25.459999999999994h5v374.54h-5Z" fill="#4c78a8"/><path d="M187.76170136043126,69.57h5v330.43h-5Z" fill="#4c78a8"/><path d="M167.51504030883584,94.18000000000002h5v305.82h-5Z" fill="#4c78a8"/><path d="M595.641619540694,8.28000000000002h5v391.71999999999997h-5Z" fill="#4c78a8"/><path d="M19.895018650959297,208.71h5v191.29h-5Z" fill="#4c78a8"/><path d="M103.73330525897417,168.18h5v231.82h-5Z" fill="#4c78a8"/><path d="M262.9500060168255,61.620000000000005h5v338.38h-5Z" fill="#4c78a8"/><path d="M650.678317892214,7.220000000000004h5v392.78h-5Z" fill="#4c78a8"/><path d="M679.5749608954301,13.940000000000019h5v386.06h-5Z" fill="#4c78a8"/><path d="M205.25177475711462,67.39999999999999h5v332.6h-5Z" fill="#4c78a8"/><path d="M216.65834436364725,74.44999999999999h5v325.55h-5Z" fill="#4c78a8"/><path d="M338.2333654199409,52.93000000000001h5v347.07h-5Z" fill="#4c78a8"/><path d="M127.02171820564499,146.99h5v253.01h-5Z" fill="#4c78a8"/><path d="M251.35332691685068,67.11999999999998h5v332.88h-5Z" fill="#4c78a8"/><path d="M254.20496931848385,69.56000000000002h5v330.44h-5Z" fill="#4c78a8"/><path d="M471.31001082948836,28.03h5v371.97h-5Z" fill="#4c78a8"/><path d="M474.2567079778426,27.879999999999995h5v372.12h-5Z" fill="#4c78a8"/><path d="M575.3949584890986,1.5099999999999891h5v398.49h-5Z" fill="#4c78a8"/><path d="M66.37678979757979,192.32h5v207.68h-5Z" fill="#4c78a8"/><path d="M144.226627362165,133.02h5v266.98h-5Z" fill="#4c78a8"/><path d="M358.3849717248153,58.740000000000016h5v341.26h-5Z" fill="#4c78a8"/><path d="M361.3316688731695,56.829999999999984h5v343.17h-5Z" fill="#4c78a8"/><path d="M222.4566839136347,78.50999999999999h5v321.49h-5Z" fill="#4c78a8"/><path d="M95.17837805407468,173.32999999999998h5v226.67000000000002h-5Z" fill="#4c78a8"/><path d="M653.6250150405683,7.319999999999993h5v392.68h-5Z" fill="#4c78a8"/><path d="M393.0799542780187,54.51999999999999h5v345.48h-5Z" fill="#4c78a8"/><path d="M636.134941643885,16.979999999999997h5v383.02h-5Z" fill="#4c78a8"/><path d="M77.78335940411242,186.58h5v213.42h-5Z" fill="#4c78a8"/><path d="M317.8916496216244,50.93999999999998h5v349.06h-5Z" fill="#4c78a8"/><path d="M427.77493683122213,44.47999999999999h5v355.52h-5Z" fill="#4c78a8"/><path d="M685.3733004454174,15.110000000000001h5v384.89h-5Z" fill="#4c78a8"/><path d="M688.3199975937717,17.91999999999998h5v382.08000000000004h-5Z" fill="#4c78a8"/><path d="M280.2499699200667,52.839999999999996h5v347.16h-5Z" fill="#4c78a8"/><path d="M60.48339550087127,195.12h5v204.88h-5Z" fill="#4c78a8"/><path d="M147.17332451051928,128.33999999999997h5v271.66h-5Z" fill="#4c78a8"/><path d="M387.28161472803123,53.06000000000002h5v346.94h-5Z" fill="#4c78a8"/><path d="M563.7982793891238,2.950000000000008h5v397.05h-5Z" fill="#4c78a8"/><path d="M193.56004091041868,68.16h5v331.84000000000003h-5Z" fill="#4c78a8"/><path d="M569.5966189391112,3.5600000000000076h5v396.44h-5Z" fill="#4c78a8"/><path d="M630.3366020938975,14.539999999999997h5v385.46h-5Z" fill="#4c78a8"/><path d="M367.13000842315694,54.86h5v345.14h-5Z" fill="#4c78a8"/><path d="M101.07177235078323,170.91h5v229.09h-5Z" fill="#4c78a8"/><path d="M8.298339550984453,205.29999999999998h5v194.70000000000002h-5Z" fill="#4c78a8"/><path d="M633.2832992422518,15.289999999999981h5v384.71000000000004h-5Z" fill="#4c78a8"/><path d="M86.52839610245411,178.77h5v221.23h-5Z" fill="#4c78a8"/><path d="M775.0099266034198,42.910000000000004h5v357.09h-5Z" fill="#4c78a8"/></g><g class="mark-group role-title"><g transform="translate(400,-22)"><path class="background" aria-hidden="true" d="M0,0h0v0h0Z" pointer-events="none"/><g><g class="mark-text role-title-text" role="graphics-symbol" aria-roledescription="title" aria-label="Title text 'Active SFC Professionals by Month'" pointer-events="none"><text text-anchor="middle" transform="translate(0,10)" font-family="sans-serif" font-size="13px" font-weight="bold" fill="#000" opacity="1">Active SFC Professionals by Month</text></g></g><path class="foreground" aria-hidden="true" d="" pointer-events="none" display="none"/></g></g></g><path class="foreground" aria-hidden="true" d="" display="none"/></g></g></g><defs><clipPath id="clip1"><rect x="0" y="0" width="800" height="400"/></clipPath></defs></svg>